<svg xmlns="http://www.w3.org/2000/svg" width="22" height="22" viewBox="0 0 22 22">
  <defs>
    <style>
      .cls-1 {
        fill-rule: evenodd;
      }
    </style>
  </defs>
  <path id="content_left" data-name="content left" class="cls-1" d="M88,527h4a3,3,0,0,0,3-3v-4a3,3,0,0,0-3-3H88a3,3,0,0,0-3,3v4A3,3,0,0,0,88,527Zm-1-7a1,1,0,0,1,1-1h4a1,1,0,0,1,1,1v4a1,1,0,0,1-1,1H88a1,1,0,0,1-1-1v-4Zm-11,7h4a3,3,0,0,0,3-3V508a3,3,0,0,0-3-3H76a3,3,0,0,0-3,3v16A3,3,0,0,0,76,527Zm-1-19a1,1,0,0,1,1-1h4a1,1,0,0,1,1,1v16a1,1,0,0,1-1,1H76a1,1,0,0,1-1-1V508Zm13,7h4a3,3,0,0,0,3-3v-4a3,3,0,0,0-3-3H88a3,3,0,0,0-3,3v4A3,3,0,0,0,88,515Zm-1-7a1,1,0,0,1,1-1h4a1,1,0,0,1,1,1v4a1,1,0,0,1-1,1H88a1,1,0,0,1-1-1v-4Z" transform="translate(-73 -505)"/>
</svg>
