<svg xmlns="http://www.w3.org/2000/svg" width="22.969" height="20" viewBox="0 0 22.969 20">
  <defs>
    <style>
      .cls-1 {
        fill-rule: evenodd;
      }
    </style>
  </defs>
  <path id="heart" class="cls-1" d="M237.238,123.738a5.877,5.877,0,0,0-8.36,0l-1.393,1.406-1.394-1.405a5.875,5.875,0,0,0-8.36,0,6,6,0,0,0,0,8.432l1.393,1.405,8.361,8.432,8.36-8.432,1.393-1.405A6,6,0,0,0,237.238,123.738Zm-4.18,9.838-5.573,5.622-5.574-5.622-2.786-2.81a4,4,0,0,1,0-5.622,3.916,3.916,0,0,1,5.573,0l2.787,2.811,2.787-2.811a3.916,3.916,0,0,1,5.573,0,4,4,0,0,1,0,5.622Z" transform="translate(-216.031 -122)"/>
</svg>
