<svg xmlns="http://www.w3.org/2000/svg" width="24" height="23" viewBox="0 0 24 23">
  <defs>
    <style>
      .cls-1 {
        fill-rule: evenodd;
      }
    </style>
  </defs>
  <path id="head" class="cls-1" d="M232.168,373.314A5.981,5.981,0,0,0,234,369v-3a6,6,0,0,0-12,0v3a5.98,5.98,0,0,0,1.832,4.313c-4.573.712-7.832,2.559-7.832,4.71V380a3,3,0,0,0,3,3h18a3,3,0,0,0,3-3v-1.969C240,375.88,236.74,374.028,232.168,373.314ZM224,369v-3a4,4,0,0,1,8,0v3A4,4,0,0,1,224,369Zm14,11a1,1,0,0,1-1,1H219a1,1,0,0,1-1-1v-1.977c0-.232.576-0.985,2.288-1.7a23.149,23.149,0,0,1,15.422,0c1.713,0.72,2.29,1.474,2.29,1.708V380Z" transform="translate(-216 -360)"/>
</svg>
