<svg xmlns="http://www.w3.org/2000/svg" width="19" height="22" viewBox="0 0 19 22">
  <defs>
    <style>
      .cls-1 {
        fill-rule: evenodd;
      }
    </style>
  </defs>
  <path id="flag" class="cls-1" d="M424,507c-3,0-6-2-9-2a12.133,12.133,0,0,0-5,1v20a1,1,0,0,0,2,0v-6.661a13.394,13.394,0,0,1,3-.339c3,0,6,2,9,2a12.133,12.133,0,0,0,5-1V506A12.133,12.133,0,0,1,424,507Zm3,11.6a11.222,11.222,0,0,1-3,.4,13.9,13.9,0,0,1-4.256-1.027A15.22,15.22,0,0,0,415,517a15.418,15.418,0,0,0-3,.294V507.4a11.222,11.222,0,0,1,3-.4,13.9,13.9,0,0,1,4.256,1.027A15.22,15.22,0,0,0,424,509a15.418,15.418,0,0,0,3-.294V518.6Z" transform="translate(-410 -505)"/>
</svg>
