<svg xmlns="http://www.w3.org/2000/svg" width="24" height="24" viewBox="0 0 24 24">
  <defs>
    <style>
      .cls-1 {
        fill-rule: evenodd;
      }
    </style>
  </defs>
  <path id="cog" class="cls-1" d="M189,135a3,3,0,0,0,0-6h-0.512a8.946,8.946,0,0,0-.365-0.88l0.362-.363a3,3,0,1,0-4.242-4.242l-0.363.362a8.946,8.946,0,0,0-.88-0.365V123a3,3,0,0,0-6,0v0.512a8.946,8.946,0,0,0-.88.365l-0.363-.362a3,3,0,1,0-4.242,4.242l0.362,0.363a8.946,8.946,0,0,0-.365.88H171a3,3,0,0,0,0,6h0.512a8.946,8.946,0,0,0,.365.88l-0.362.363a3,3,0,0,0,4.242,4.242l0.363-.362a8.946,8.946,0,0,0,.88.365V141a3,3,0,0,0,6,0v-0.512a8.946,8.946,0,0,0,.88-0.365l0.363,0.362a3,3,0,0,0,4.242-4.242l-0.362-.363a8.946,8.946,0,0,0,.365-0.88H189Zm-2.071-2a6.958,6.958,0,0,1-1.323,3.192l1.426,1.426,0.039,0.039a1,1,0,0,1-1.414,1.414l-0.039-.039-1.426-1.426A6.958,6.958,0,0,1,181,138.929V141a1,1,0,0,1-2,0v-2.071a6.958,6.958,0,0,1-3.192-1.323l-1.426,1.426-0.039.039a1,1,0,0,1-1.414-1.414l0.039-.039,1.426-1.426A6.958,6.958,0,0,1,173.071,133H171a1,1,0,0,1,0-2h2.071a6.958,6.958,0,0,1,1.323-3.192l-1.426-1.426-0.039-.039a1,1,0,1,1,1.414-1.414l0.039,0.039,1.426,1.426A6.958,6.958,0,0,1,179,125.071V123a1,1,0,0,1,2,0v2.071a6.958,6.958,0,0,1,3.192,1.323l1.426-1.426,0.039-.039a1,1,0,1,1,1.414,1.414l-0.039.039-1.426,1.426A6.958,6.958,0,0,1,186.929,131H189a1,1,0,0,1,0,2h-2.071ZM180,128a4,4,0,1,0,4,4A4,4,0,0,0,180,128Zm0,6a2,2,0,1,1,2-2A2,2,0,0,1,180,134Z" transform="translate(-168 -120)"/>
</svg>
